<?xml version="1.0" encoding="UTF-8" standalone="no"?>
<!DOCTYPE svg PUBLIC "-//W3C//DTD SVG 1.1//EN" "http://www.w3.org/Graphics/SVG/1.1/DTD/svg11.dtd"> 

<svg
   xmlns:dc="http://purl.org/dc/elements/1.1/"
   xmlns:cc="http://creativecommons.org/ns#"
   xmlns:rdf="http://www.w3.org/1999/02/22-rdf-syntax-ns#"
   xmlns:svg="http://www.w3.org/2000/svg"
   xmlns="http://www.w3.org/2000/svg"
   xmlns:xlink="http://www.w3.org/1999/xlink"
   version="1.1"
   width="2027"
   height="1276"
   id="svg2">
  <defs
     id="defs3164">
    <linearGradient
       id="linearGradient5498">
      <stop
         id="stop5500"
         style="stop-color:#b7d98f;stop-opacity:1"
         offset="0" />
      <stop
         id="stop5502"
         style="stop-color:#b7d98f;stop-opacity:0"
         offset="1" />
    </linearGradient>
    <linearGradient
       id="linearGradient5486">
      <stop
         id="stop5488"
         style="stop-color:#b7d98f;stop-opacity:1"
         offset="0" />
      <stop
         id="stop5490"
         style="stop-color:#b7d98f;stop-opacity:0"
         offset="1" />
    </linearGradient>
    <linearGradient
       id="linearGradient5386">
      <stop
         id="stop5388"
         style="stop-color:#ffffff;stop-opacity:1"
         offset="0" />
      <stop
         id="stop5390"
         style="stop-color:#ffffff;stop-opacity:0"
         offset="1" />
    </linearGradient>
    <linearGradient
       id="linearGradient5326">
      <stop
         id="stop5328"
         style="stop-color:#ffffff;stop-opacity:1"
         offset="0" />
      <stop
         id="stop5330"
         style="stop-color:#ffffff;stop-opacity:0"
         offset="1" />
    </linearGradient>
    <linearGradient
       id="linearGradient5233">
      <stop
         id="stop5235"
         style="stop-color:#342c53;stop-opacity:1"
         offset="0" />
      <stop
         id="stop5237"
         style="stop-color:#342c53;stop-opacity:0"
         offset="1" />
    </linearGradient>
    <linearGradient
       x1="1040"
       y1="476"
       x2="1040"
       y2="1996"
       id="linearGradient5239"
       xlink:href="#linearGradient5233"
       gradientUnits="userSpaceOnUse" />
    <linearGradient
       x1="1040"
       y1="476"
       x2="1040"
       y2="1996"
       id="linearGradient5239-3"
       xlink:href="#linearGradient5233-9"
       gradientUnits="userSpaceOnUse" />
    <linearGradient
       id="linearGradient5233-9">
      <stop
         id="stop5235-4"
         style="stop-color:#342c53;stop-opacity:1"
         offset="0" />
      <stop
         id="stop5237-4"
         style="stop-color:#342c53;stop-opacity:0"
         offset="1" />
    </linearGradient>
    <linearGradient
       x1="2539.5659"
       y1="887.65692"
       x2="1817.0107"
       y2="885.28003"
       id="linearGradient5332"
       xlink:href="#linearGradient5326"
       gradientUnits="userSpaceOnUse" />
    <linearGradient
       x1="2129.7449"
       y1="882.9032"
       x2="1376.0455"
       y2="887.65686"
       id="linearGradient5392"
       xlink:href="#linearGradient5386"
       gradientUnits="userSpaceOnUse" />
    <linearGradient
       x1="2129.7449"
       y1="882.9032"
       x2="1376.0455"
       y2="887.65686"
       id="linearGradient5392-0"
       xlink:href="#linearGradient5386-7"
       gradientUnits="userSpaceOnUse" />
    <linearGradient
       id="linearGradient5386-7">
      <stop
         id="stop5388-2"
         style="stop-color:#ffffff;stop-opacity:1"
         offset="0" />
      <stop
         id="stop5390-7"
         style="stop-color:#ffffff;stop-opacity:0"
         offset="1" />
    </linearGradient>
    <linearGradient
       x1="2129.7449"
       y1="882.9032"
       x2="1376.0455"
       y2="887.65686"
       id="linearGradient5409"
       xlink:href="#linearGradient5386-7"
       gradientUnits="userSpaceOnUse"
       gradientTransform="matrix(1.025641,0,0,1.0526316,-413.60248,91.72626)" />
    <linearGradient
       x1="2539.5659"
       y1="887.65692"
       x2="1817.0107"
       y2="885.28003"
       id="linearGradient5332-6"
       xlink:href="#linearGradient5326-4"
       gradientUnits="userSpaceOnUse" />
    <linearGradient
       id="linearGradient5326-4">
      <stop
         id="stop5328-7"
         style="stop-color:#ffffff;stop-opacity:1"
         offset="0" />
      <stop
         id="stop5330-1"
         style="stop-color:#ffffff;stop-opacity:0"
         offset="1" />
    </linearGradient>
    <linearGradient
       x1="2539.5659"
       y1="887.65692"
       x2="1817.0107"
       y2="885.28003"
       id="linearGradient5461"
       xlink:href="#linearGradient5326-4"
       gradientUnits="userSpaceOnUse" />
    <linearGradient
       x1="2560.9426"
       y1="648.86145"
       x2="1818.2638"
       y2="647.18073"
       id="linearGradient5492"
       xlink:href="#linearGradient5486"
       gradientUnits="userSpaceOnUse" />
    <linearGradient
       x1="2126.2615"
       y1="647.18066"
       x2="1387.0325"
       y2="647.18066"
       id="linearGradient5504"
       xlink:href="#linearGradient5498"
       gradientUnits="userSpaceOnUse" />
    <linearGradient
       x1="1040"
       y1="476"
       x2="1040"
       y2="1996"
       id="linearGradient5239-1"
       xlink:href="#linearGradient5233-6"
       gradientUnits="userSpaceOnUse" />
    <linearGradient
       id="linearGradient5233-6">
      <stop
         id="stop5235-3"
         style="stop-color:#342c53;stop-opacity:1"
         offset="0" />
      <stop
         id="stop5237-8"
         style="stop-color:#342c53;stop-opacity:0"
         offset="1" />
    </linearGradient>
    <linearGradient
       x1="1040"
       y1="476"
       x2="1040"
       y2="1996"
       id="linearGradient5521"
       xlink:href="#linearGradient5233-6"
       gradientUnits="userSpaceOnUse"
       gradientTransform="translate(16.147332,1409.3509)" />
    <linearGradient
       x1="2539.5659"
       y1="887.65692"
       x2="1817.0107"
       y2="885.28003"
       id="linearGradient5715"
       xlink:href="#linearGradient5326"
       gradientUnits="userSpaceOnUse"
       gradientTransform="matrix(1.025641,0,0,1.0526316,-775.10252,-665.47366)" />
    <linearGradient
       x1="1847.8838"
       y1="648.86145"
       x2="1082.6874"
       y2="647.18073"
       id="linearGradient3152"
       xlink:href="#linearGradient5486"
       gradientUnits="userSpaceOnUse" />
    <linearGradient
       x1="1847.8838"
       y1="648.86145"
       x2="1082.6874"
       y2="647.18073"
       id="linearGradient3154"
       xlink:href="#linearGradient5486"
       gradientUnits="userSpaceOnUse" />
    <linearGradient
       x1="1847.8838"
       y1="648.86145"
       x2="1082.6874"
       y2="647.18073"
       id="linearGradient3156"
       xlink:href="#linearGradient5486"
       gradientUnits="userSpaceOnUse" />
    <linearGradient
       x1="1771.9645"
       y1="264.91888"
       x2="1013.2612"
       y2="262.16666"
       id="linearGradient3188"
       xlink:href="#linearGradient5386"
       gradientUnits="userSpaceOnUse" />
    <linearGradient
       x1="1771.9645"
       y1="264.91888"
       x2="1013.2612"
       y2="262.16666"
       id="linearGradient3190"
       xlink:href="#linearGradient5386"
       gradientUnits="userSpaceOnUse" />
    <linearGradient
       x1="1771.9645"
       y1="264.91888"
       x2="1013.2612"
       y2="262.16666"
       id="linearGradient3192"
       xlink:href="#linearGradient5386"
       gradientUnits="userSpaceOnUse" />
    <linearGradient
       x1="1771.9645"
       y1="264.91888"
       x2="1013.2612"
       y2="262.16666"
       id="linearGradient3194"
       xlink:href="#linearGradient5386"
       gradientUnits="userSpaceOnUse" />
    <linearGradient
       x1="1771.9645"
       y1="264.91888"
       x2="1013.2612"
       y2="262.16666"
       id="linearGradient3196"
       xlink:href="#linearGradient5386"
       gradientUnits="userSpaceOnUse" />
    <linearGradient
       x1="1771.9645"
       y1="264.91888"
       x2="1013.2612"
       y2="262.16666"
       id="linearGradient3198"
       xlink:href="#linearGradient5386"
       gradientUnits="userSpaceOnUse" />
    <linearGradient
       x1="1771.9645"
       y1="264.91888"
       x2="1013.2612"
       y2="262.16666"
       id="linearGradient3200"
       xlink:href="#linearGradient5386"
       gradientUnits="userSpaceOnUse" />
    <linearGradient
       x1="1771.9645"
       y1="264.91888"
       x2="1013.2612"
       y2="262.16666"
       id="linearGradient3202"
       xlink:href="#linearGradient5386"
       gradientUnits="userSpaceOnUse" />
    <linearGradient
       x1="1771.9645"
       y1="264.91888"
       x2="1013.2612"
       y2="262.16666"
       id="linearGradient3204"
       xlink:href="#linearGradient5386"
       gradientUnits="userSpaceOnUse" />
    <linearGradient
       x1="1771.9645"
       y1="264.91888"
       x2="1013.2612"
       y2="262.16666"
       id="linearGradient3206"
       xlink:href="#linearGradient5386"
       gradientUnits="userSpaceOnUse" />
    <linearGradient
       x1="1771.9645"
       y1="264.91888"
       x2="1013.2612"
       y2="262.16666"
       id="linearGradient3208"
       xlink:href="#linearGradient5386"
       gradientUnits="userSpaceOnUse" />
    <linearGradient
       x1="1771.9645"
       y1="264.91888"
       x2="1013.2612"
       y2="262.16666"
       id="linearGradient3210"
       xlink:href="#linearGradient5386"
       gradientUnits="userSpaceOnUse" />
    <linearGradient
       x1="1771.9645"
       y1="264.91888"
       x2="1013.2612"
       y2="262.16666"
       id="linearGradient3212"
       xlink:href="#linearGradient5386"
       gradientUnits="userSpaceOnUse" />
    <linearGradient
       x1="1771.9645"
       y1="264.91888"
       x2="1013.2612"
       y2="262.16666"
       id="linearGradient3214"
       xlink:href="#linearGradient5386"
       gradientUnits="userSpaceOnUse" />
    <linearGradient
       x1="1771.9645"
       y1="264.91888"
       x2="1013.2612"
       y2="262.16666"
       id="linearGradient3216"
       xlink:href="#linearGradient5386"
       gradientUnits="userSpaceOnUse" />
    <linearGradient
       x1="1773.485"
       y1="647.18066"
       x2="954.19324"
       y2="652.18457"
       id="linearGradient3254"
       xlink:href="#linearGradient5498"
       gradientUnits="userSpaceOnUse" />
    <linearGradient
       x1="1773.485"
       y1="647.18066"
       x2="954.19324"
       y2="652.18457"
       id="linearGradient3256"
       xlink:href="#linearGradient5498"
       gradientUnits="userSpaceOnUse" />
    <linearGradient
       x1="1773.485"
       y1="647.18066"
       x2="954.19324"
       y2="652.18457"
       id="linearGradient3258"
       xlink:href="#linearGradient5498"
       gradientUnits="userSpaceOnUse" />
    <linearGradient
       x1="2539.5659"
       y1="887.65692"
       x2="1817.0107"
       y2="885.28003"
       id="linearGradient5715-5"
       xlink:href="#linearGradient5326-5"
       gradientUnits="userSpaceOnUse"
       gradientTransform="matrix(1.025641,0,0,1.0526316,-775.10252,-665.47366)" />
    <linearGradient
       id="linearGradient5326-5">
      <stop
         id="stop5328-1"
         style="stop-color:#ffffff;stop-opacity:1"
         offset="0" />
      <stop
         id="stop5330-7"
         style="stop-color:#ffffff;stop-opacity:0"
         offset="1" />
    </linearGradient>
    <linearGradient
       x1="2539.5659"
       y1="887.65692"
       x2="1817.0107"
       y2="885.28003"
       id="linearGradient3606"
       xlink:href="#linearGradient5326-5"
       gradientUnits="userSpaceOnUse"
       gradientTransform="matrix(1.025641,0,0,1.0526316,-775.10252,-665.47366)" />
    <linearGradient
       id="linearGradient3608">
      <stop
         id="stop3610"
         style="stop-color:#ffffff;stop-opacity:1"
         offset="0" />
      <stop
         id="stop3612"
         style="stop-color:#ffffff;stop-opacity:0"
         offset="1" />
    </linearGradient>
    <linearGradient
       x1="2539.5659"
       y1="887.65692"
       x2="1817.0107"
       y2="885.28003"
       id="linearGradient3614"
       xlink:href="#linearGradient5326-5"
       gradientUnits="userSpaceOnUse"
       gradientTransform="matrix(1.025641,0,0,1.0526316,-775.10252,-665.47366)" />
    <linearGradient
       id="linearGradient3616">
      <stop
         id="stop3618"
         style="stop-color:#ffffff;stop-opacity:1"
         offset="0" />
      <stop
         id="stop3620"
         style="stop-color:#ffffff;stop-opacity:0"
         offset="1" />
    </linearGradient>
    <linearGradient
       x1="2539.5659"
       y1="887.65692"
       x2="1817.0107"
       y2="885.28003"
       id="linearGradient3622"
       xlink:href="#linearGradient5326-5"
       gradientUnits="userSpaceOnUse"
       gradientTransform="matrix(1.025641,0,0,1.0526316,-775.10252,-665.47366)" />
    <linearGradient
       id="linearGradient3624">
      <stop
         id="stop3626"
         style="stop-color:#ffffff;stop-opacity:1"
         offset="0" />
      <stop
         id="stop3628"
         style="stop-color:#ffffff;stop-opacity:0"
         offset="1" />
    </linearGradient>
    <linearGradient
       x1="2539.5659"
       y1="887.65692"
       x2="1817.0107"
       y2="885.28003"
       id="linearGradient3630"
       xlink:href="#linearGradient5326-5"
       gradientUnits="userSpaceOnUse"
       gradientTransform="matrix(1.025641,0,0,1.0526316,-775.10252,-665.47366)" />
    <linearGradient
       id="linearGradient3632">
      <stop
         id="stop3634"
         style="stop-color:#ffffff;stop-opacity:1"
         offset="0" />
      <stop
         id="stop3636"
         style="stop-color:#ffffff;stop-opacity:0"
         offset="1" />
    </linearGradient>
    <linearGradient
       x1="2539.5659"
       y1="887.65692"
       x2="1817.0107"
       y2="885.28003"
       id="linearGradient3638"
       xlink:href="#linearGradient5326-5"
       gradientUnits="userSpaceOnUse"
       gradientTransform="matrix(1.025641,0,0,1.0526316,-775.10252,-665.47366)" />
    <linearGradient
       id="linearGradient3640">
      <stop
         id="stop3642"
         style="stop-color:#ffffff;stop-opacity:1"
         offset="0" />
      <stop
         id="stop3644"
         style="stop-color:#ffffff;stop-opacity:0"
         offset="1" />
    </linearGradient>
    <linearGradient
       x1="2539.5659"
       y1="887.65692"
       x2="1817.0107"
       y2="885.28003"
       id="linearGradient3646"
       xlink:href="#linearGradient5326-5"
       gradientUnits="userSpaceOnUse"
       gradientTransform="matrix(1.025641,0,0,1.0526316,-775.10252,-665.47366)" />
    <linearGradient
       id="linearGradient3648">
      <stop
         id="stop3650"
         style="stop-color:#ffffff;stop-opacity:1"
         offset="0" />
      <stop
         id="stop3652"
         style="stop-color:#ffffff;stop-opacity:0"
         offset="1" />
    </linearGradient>
    <linearGradient
       x1="2539.5659"
       y1="887.65692"
       x2="1817.0107"
       y2="885.28003"
       id="linearGradient3654"
       xlink:href="#linearGradient5326-5"
       gradientUnits="userSpaceOnUse"
       gradientTransform="matrix(1.025641,0,0,1.0526316,-775.10252,-665.47366)" />
    <linearGradient
       id="linearGradient3656">
      <stop
         id="stop3658"
         style="stop-color:#ffffff;stop-opacity:1"
         offset="0" />
      <stop
         id="stop3660"
         style="stop-color:#ffffff;stop-opacity:0"
         offset="1" />
    </linearGradient>
    <linearGradient
       x1="2539.5659"
       y1="887.65692"
       x2="1817.0107"
       y2="885.28003"
       id="linearGradient3662"
       xlink:href="#linearGradient5326-5"
       gradientUnits="userSpaceOnUse"
       gradientTransform="matrix(1.025641,0,0,1.0526316,-775.10252,-665.47366)" />
    <linearGradient
       id="linearGradient3664">
      <stop
         id="stop3666"
         style="stop-color:#ffffff;stop-opacity:1"
         offset="0" />
      <stop
         id="stop3668"
         style="stop-color:#ffffff;stop-opacity:0"
         offset="1" />
    </linearGradient>
    <linearGradient
       x1="2539.5659"
       y1="887.65692"
       x2="1817.0107"
       y2="885.28003"
       id="linearGradient3670"
       xlink:href="#linearGradient5326-5"
       gradientUnits="userSpaceOnUse"
       gradientTransform="matrix(1.025641,0,0,1.0526316,-775.10252,-665.47366)" />
    <linearGradient
       id="linearGradient3672">
      <stop
         id="stop3674"
         style="stop-color:#ffffff;stop-opacity:1"
         offset="0" />
      <stop
         id="stop3676"
         style="stop-color:#ffffff;stop-opacity:0"
         offset="1" />
    </linearGradient>
    <linearGradient
       x1="2539.5659"
       y1="887.65692"
       x2="1817.0107"
       y2="885.28003"
       id="linearGradient3678"
       xlink:href="#linearGradient5326-5"
       gradientUnits="userSpaceOnUse"
       gradientTransform="matrix(1.025641,0,0,1.0526316,-775.10252,-665.47366)" />
    <linearGradient
       id="linearGradient3680">
      <stop
         id="stop3682"
         style="stop-color:#ffffff;stop-opacity:1"
         offset="0" />
      <stop
         id="stop3684"
         style="stop-color:#ffffff;stop-opacity:0"
         offset="1" />
    </linearGradient>
    <linearGradient
       x1="2539.5659"
       y1="887.65692"
       x2="1817.0107"
       y2="885.28003"
       id="linearGradient3686"
       xlink:href="#linearGradient5326-5"
       gradientUnits="userSpaceOnUse"
       gradientTransform="matrix(1.025641,0,0,1.0526316,-775.10252,-665.47366)" />
    <linearGradient
       id="linearGradient3688">
      <stop
         id="stop3690"
         style="stop-color:#ffffff;stop-opacity:1"
         offset="0" />
      <stop
         id="stop3692"
         style="stop-color:#ffffff;stop-opacity:0"
         offset="1" />
    </linearGradient>
    <linearGradient
       x1="2539.5659"
       y1="887.65692"
       x2="1817.0107"
       y2="885.28003"
       id="linearGradient3694"
       xlink:href="#linearGradient5326-5"
       gradientUnits="userSpaceOnUse"
       gradientTransform="matrix(1.025641,0,0,1.0526316,-775.10252,-665.47366)" />
    <linearGradient
       id="linearGradient3696">
      <stop
         id="stop3698"
         style="stop-color:#ffffff;stop-opacity:1"
         offset="0" />
      <stop
         id="stop3700"
         style="stop-color:#ffffff;stop-opacity:0"
         offset="1" />
    </linearGradient>
    <linearGradient
       x1="2539.5659"
       y1="887.65692"
       x2="1817.0107"
       y2="885.28003"
       id="linearGradient3702"
       xlink:href="#linearGradient5326-5"
       gradientUnits="userSpaceOnUse"
       gradientTransform="matrix(1.025641,0,0,1.0526316,-775.10252,-665.47366)" />
    <linearGradient
       id="linearGradient3704">
      <stop
         id="stop3706"
         style="stop-color:#ffffff;stop-opacity:1"
         offset="0" />
      <stop
         id="stop3708"
         style="stop-color:#ffffff;stop-opacity:0"
         offset="1" />
    </linearGradient>
    <linearGradient
       x1="2539.5659"
       y1="887.65692"
       x2="1817.0107"
       y2="885.28003"
       id="linearGradient3710"
       xlink:href="#linearGradient5326-5"
       gradientUnits="userSpaceOnUse"
       gradientTransform="matrix(1.025641,0,0,1.0526316,-775.10252,-665.47366)" />
    <linearGradient
       id="linearGradient3712">
      <stop
         id="stop3714"
         style="stop-color:#ffffff;stop-opacity:1"
         offset="0" />
      <stop
         id="stop3716"
         style="stop-color:#ffffff;stop-opacity:0"
         offset="1" />
    </linearGradient>
    <linearGradient
       x1="2539.5659"
       y1="887.65692"
       x2="1817.0107"
       y2="885.28003"
       id="linearGradient3733"
       xlink:href="#linearGradient5326-5"
       gradientUnits="userSpaceOnUse"
       gradientTransform="matrix(1.025641,0,0,1.0526316,-775.10246,91.726244)" />
    <linearGradient
       x1="2539.5659"
       y1="887.65692"
       x2="1817.0107"
       y2="885.28003"
       id="linearGradient3735"
       xlink:href="#linearGradient5326-5"
       gradientUnits="userSpaceOnUse"
       gradientTransform="matrix(1.025641,0,0,1.0526316,-775.10246,91.726244)" />
    <linearGradient
       x1="2539.5659"
       y1="887.65692"
       x2="1817.0107"
       y2="885.28003"
       id="linearGradient3737"
       xlink:href="#linearGradient5326-5"
       gradientUnits="userSpaceOnUse"
       gradientTransform="matrix(1.025641,0,0,1.0526316,-775.10246,91.726244)" />
    <linearGradient
       x1="2539.5659"
       y1="887.65692"
       x2="1817.0107"
       y2="885.28003"
       id="linearGradient3739"
       xlink:href="#linearGradient5326-5"
       gradientUnits="userSpaceOnUse"
       gradientTransform="matrix(1.025641,0,0,1.0526316,-775.10246,91.726244)" />
    <linearGradient
       x1="2539.5659"
       y1="887.65692"
       x2="1817.0107"
       y2="885.28003"
       id="linearGradient3741"
       xlink:href="#linearGradient5326-5"
       gradientUnits="userSpaceOnUse"
       gradientTransform="matrix(1.025641,0,0,1.0526316,-775.10246,91.726244)" />
    <linearGradient
       x1="2539.5659"
       y1="887.65692"
       x2="1817.0107"
       y2="885.28003"
       id="linearGradient3743"
       xlink:href="#linearGradient5326-5"
       gradientUnits="userSpaceOnUse"
       gradientTransform="matrix(1.025641,0,0,1.0526316,-775.10246,91.726244)" />
    <linearGradient
       x1="2539.5659"
       y1="887.65692"
       x2="1817.0107"
       y2="885.28003"
       id="linearGradient3745"
       xlink:href="#linearGradient5326-5"
       gradientUnits="userSpaceOnUse"
       gradientTransform="matrix(1.025641,0,0,1.0526316,-775.10246,91.726244)" />
    <linearGradient
       x1="2539.5659"
       y1="887.65692"
       x2="1817.0107"
       y2="885.28003"
       id="linearGradient3747"
       xlink:href="#linearGradient5326-5"
       gradientUnits="userSpaceOnUse"
       gradientTransform="matrix(1.025641,0,0,1.0526316,-775.10246,91.726244)" />
    <linearGradient
       x1="2539.5659"
       y1="887.65692"
       x2="1817.0107"
       y2="885.28003"
       id="linearGradient3749"
       xlink:href="#linearGradient5326-5"
       gradientUnits="userSpaceOnUse"
       gradientTransform="matrix(1.025641,0,0,1.0526316,-775.10246,91.726244)" />
    <linearGradient
       x1="2539.5659"
       y1="887.65692"
       x2="1817.0107"
       y2="885.28003"
       id="linearGradient3751"
       xlink:href="#linearGradient5326-5"
       gradientUnits="userSpaceOnUse"
       gradientTransform="matrix(1.025641,0,0,1.0526316,-775.10246,91.726244)" />
    <linearGradient
       x1="2539.5659"
       y1="887.65692"
       x2="1817.0107"
       y2="885.28003"
       id="linearGradient3753"
       xlink:href="#linearGradient5326-5"
       gradientUnits="userSpaceOnUse"
       gradientTransform="matrix(1.025641,0,0,1.0526316,-775.10246,91.726244)" />
    <linearGradient
       x1="2539.5659"
       y1="887.65692"
       x2="1817.0107"
       y2="885.28003"
       id="linearGradient3755"
       xlink:href="#linearGradient5326-5"
       gradientUnits="userSpaceOnUse"
       gradientTransform="matrix(1.025641,0,0,1.0526316,-775.10246,91.726244)" />
    <linearGradient
       x1="2539.5659"
       y1="887.65692"
       x2="1817.0107"
       y2="885.28003"
       id="linearGradient3757"
       xlink:href="#linearGradient5326-5"
       gradientUnits="userSpaceOnUse"
       gradientTransform="matrix(1.025641,0,0,1.0526316,-775.10246,91.726244)" />
    <linearGradient
       x1="2539.5659"
       y1="887.65692"
       x2="1817.0107"
       y2="885.28003"
       id="linearGradient3759"
       xlink:href="#linearGradient5326-5"
       gradientUnits="userSpaceOnUse"
       gradientTransform="matrix(1.025641,0,0,1.0526316,-775.10246,91.726244)" />
    <linearGradient
       x1="2539.5659"
       y1="887.65692"
       x2="1817.0107"
       y2="885.28003"
       id="linearGradient3761"
       xlink:href="#linearGradient5326-5"
       gradientUnits="userSpaceOnUse"
       gradientTransform="matrix(1.025641,0,0,1.0526316,-775.10246,91.726244)" />
    <linearGradient
       x1="2539.5659"
       y1="887.65692"
       x2="1817.0107"
       y2="885.28003"
       id="linearGradient4026"
       xlink:href="#linearGradient5326"
       gradientUnits="userSpaceOnUse"
       gradientTransform="matrix(1.025641,0,0,1.0526316,-775.10252,-665.47366)" />
    <linearGradient
       x1="2539.5659"
       y1="887.65692"
       x2="1817.0107"
       y2="885.28003"
       id="linearGradient4029"
       xlink:href="#linearGradient5326"
       gradientUnits="userSpaceOnUse"
       gradientTransform="matrix(1.025641,0,0,1.0526316,-775.10252,-665.47366)" />
    <linearGradient
       x1="2129.7449"
       y1="882.9032"
       x2="1376.0455"
       y2="887.65686"
       id="linearGradient4072"
       xlink:href="#linearGradient5386-7"
       gradientUnits="userSpaceOnUse"
       gradientTransform="matrix(1.025641,0,0,1.0526316,-413.60248,91.72626)" />
    <linearGradient
       x1="2129.7449"
       y1="882.9032"
       x2="1376.0455"
       y2="887.65686"
       id="linearGradient4075"
       xlink:href="#linearGradient5386-7"
       gradientUnits="userSpaceOnUse"
       gradientTransform="matrix(1.025641,0,0,1.0526316,-413.60248,91.72626)" />
    <linearGradient
       x1="2129.7449"
       y1="882.9032"
       x2="1376.0455"
       y2="887.65686"
       id="linearGradient4092"
       xlink:href="#linearGradient5386-7"
       gradientUnits="userSpaceOnUse"
       gradientTransform="matrix(1.025641,0,0,1.0526316,-413.60248,91.72626)" />
    <linearGradient
       x1="2539.5659"
       y1="887.65692"
       x2="1817.0107"
       y2="885.28003"
       id="linearGradient4111"
       xlink:href="#linearGradient5326"
       gradientUnits="userSpaceOnUse"
       gradientTransform="matrix(1.025641,0,0,1.0526316,-775.10252,-665.47366)" />
  </defs>
  <metadata
     id="metadata3167">
  </metadata>
  <rect
     width="2027"
     height="1275.9999"
     ry="90.600815"
     x="-3.3984375e-005"
     y="0.00012158642"
     id="rect2883-7-8"
     style="fill:#ffffff;fill-opacity:1;stroke:none" />
  <g
     transform="matrix(1.0733528,0,0,1.0392297,-2644.3183,284.89865)"
     id="flowRoot3371"
     style="font-size:260px;font-style:oblique;font-variant:normal;font-weight:900;font-stretch:normal;line-height:125%;letter-spacing:0px;word-spacing:0px;fill:#000000;fill-opacity:1;stroke:none;font-family:Helvetica-CondensedBlack;-inkscape-font-specification:Helvetica-CondensedBlack Heavy Oblique" />
  <rect
     width="2027"
     height="1275.9999"
     ry="90.600815"
     x="-3.3984375e-005"
     y="0.00012158642"
     id="rect2883-7"
     style="fill:url(#linearGradient5239);fill-opacity:1;stroke:none" />
<path
     d="m 335.3641,220.74059 -71.8753,-70.84262 56.039,-55.233813 c 0,0 7.3904,-8.324685 15.8363,-8.324685 8.4462,0 15.8364,8.324685 15.8364,8.324685 l 56.039,55.233823 z m -71.8752,43.6979 2e-4,-114.54153 35.3102,0 73.1375,1e-5 35.3025,-2e-5 -1e-4,114.54152 c -10e-5,45.2032 -23.9583,67.80481 -71.8751,67.80472 -47.9169,0 -71.8752,-22.60152 -71.8752,-67.8047 z"
     id="rect3214"
     style="fill:#679227;fill-opacity:1;stroke:none" />
  <g
     transform="matrix(0.8756612,0,0,0.89176689,1197.5106,534.71659)"
     id="flowRoot3116"
     style="font-size:288px;font-style:normal;font-variant:normal;font-weight:bold;font-stretch:normal;line-height:125%;letter-spacing:0px;word-spacing:0px;fill:#ffffff;fill-opacity:1;stroke:none;font-family:'Frutiger SAIN Bd v.1';-inkscape-font-specification:'Frutiger SAIN Bd v.1 Bold'">
    <path
       d="m -1113.8984,-427.67288 -3.7442,33.11719 c -13.2481,-5.7596 -26.88,-8.63948 -40.8955,-8.63965 -8.4493,1.7e-4 -15.4571,1.92205 -21.0234,5.76563 -7.1016,4.79899 -10.6524,12.19058 -10.6524,22.1748 0,9.02357 7.582,16.79896 22.7461,23.32617 24.3866,10.17785 38.5956,16.60851 42.627,19.29199 15.1698,10.56455 22.7547,25.5411 22.7549,44.92969 -2e-4,20.73637 -7.4885,36.38381 -22.4649,46.94239 -13.2481,9.21679 -30.9141,13.82519 -52.998,13.82519 -13.2481,0 -30.4307,-2.59277 -51.5479,-7.77832 l 3.7442,-36.28125 c 15.1698,8.25589 30.3368,12.38382 45.5009,12.38379 8.8359,3e-5 16.708,-2.0156 23.6162,-6.04688 8.0683,-4.99214 12.1025,-11.61616 12.1026,-19.87207 -10e-5,-10.17767 -7.5851,-18.62688 -22.7549,-25.34765 -26.3028,-11.7128 -40.5118,-18.24014 -42.6269,-19.58203 -15.1641,-10.37099 -22.7462,-25.06043 -22.7461,-44.06836 -10e-5,-20.92367 7.2949,-36.76154 21.8847,-47.51367 12.4804,-9.2166 28.6084,-13.825 48.3838,-13.8252 17.6659,2e-4 33.6972,2.39962 48.0938,7.19824 z"
       id="path5609" />
    <path
       d="m -1066.7715,-302.97366 0,-128.44336 40.3242,0 0,116.05957 c 0,37.82817 13.9189,56.74222 41.75687,56.74219 27.84362,3e-5 41.76548,-18.91402 41.76563,-56.74219 l 0,-116.05957 40.31543,0 0,128.44336 c -1.9e-4,50.68948 -27.36052,76.03418 -82.08106,76.03418 -54.72077,0 -82.08107,-25.3447 -82.08107,-76.03418 z"
       id="path5611" />
    <path
       d="m -816.88086,-320.25296 0,58.1836 19.00195,0 c 27.65028,3e-5 41.47547,-9.31344 41.47559,-27.94043 -1.2e-4,-20.16203 -13.82531,-30.24308 -41.47559,-30.24317 z m 0,-79.48828 0,49.54395 16.41797,0 c 25.34169,1.2e-4 38.01258,-8.16198 38.01269,-24.48633 -1.1e-4,-10.36508 -4.12804,-17.46956 -12.38378,-21.31348 -5.75987,-2.49592 -14.59287,-3.74397 -26.49903,-3.74414 z m -40.32422,169.34766 0,-201.02344 70.27735,0 c 17.27918,2e-4 31.29479,3.07344 42.04687,9.21973 15.16391,8.6369 22.74594,22.74626 22.74609,42.32812 -1.5e-4,11.71303 -3.64761,21.60218 -10.94238,29.66748 -7.29506,8.06554 -16.98939,13.15294 -29.08301,15.26221 l 0,0.58008 c 13.62878,1.3419 24.71617,6.2374 33.26221,14.68652 8.54574,8.4493 12.81868,18.81746 12.81885,31.10449 -1.7e-4,22.27152 -8.64274,38.30276 -25.92774,48.09375 -11.90051,6.72071 -26.87413,10.08106 -44.92089,10.08106 z"
       id="path5613" />
    <path
       d="m -681.14258,-230.39358 0,-201.02344 118.66113,0 0,31.67578 -78.33691,0 0,49.54395 71.70996,0 0,31.67578 -71.70996,0 0,56.45215 78.9082,0 0,31.67578 z"
       id="path5615" />
  </g>
  <g
     transform="matrix(0.90746233,0,0,1.0612578,1245.4429,883.47412)"
     id="flowRoot3116-3"
     style="font-size:35.55762482px;font-style:normal;font-variant:normal;font-weight:bold;font-stretch:normal;line-height:125%;letter-spacing:0px;word-spacing:0px;fill:#ffffff;fill-opacity:1;stroke:none;font-family:'Frutiger SAIN Bd v.1';-inkscape-font-specification:'Frutiger SAIN Bd v.1 Bold'">
    <path
       d="m -1232.2924,-481.70223 -0.4623,4.08878 c -1.6357,-0.7111 -3.3187,-1.06666 -5.0491,-1.06668 -1.0432,2e-5 -1.9084,0.2373 -2.5957,0.71184 -0.8768,0.59251 -1.3151,1.5051 -1.3151,2.73779 0,1.11409 0.9361,2.07407 2.8083,2.87995 3.0109,1.25659 4.7651,2.05055 5.2629,2.38186 1.8729,1.30434 2.8094,3.15341 2.8094,5.5472 0,2.56019 -0.9246,4.49209 -2.7736,5.79569 -1.6357,1.13795 -3.8168,1.70692 -6.5434,1.70692 -1.6356,0 -3.7571,-0.32012 -6.3643,-0.96035 l 0.4623,-4.47942 c 1.8729,1.0193 3.7455,1.52895 5.6177,1.52895 1.0909,0 2.0629,-0.24886 2.9158,-0.74657 0.9961,-0.61635 1.4942,-1.43418 1.4942,-2.45349 0,-1.25657 -0.9365,-2.29975 -2.8094,-3.12952 -3.2474,-1.44611 -5.0017,-2.252 -5.2629,-2.41768 -1.8722,-1.28044 -2.8083,-3.09406 -2.8083,-5.44085 0,-2.58332 0.9006,-4.53873 2.702,-5.86623 1.5408,-1.13791 3.5321,-1.70689 5.9736,-1.70691 2.1811,2e-5 4.1604,0.29627 5.9379,0.88872 z"
       id="path5550"
       style="fill:#ffffff" />
    <path
       d="m -1226.7224,-457.34534 0,-24.81915 4.9785,0 0,24.81915 z"
       id="path5552"
       style="fill:#ffffff" />
    <path
       d="m -1202.6379,-481.70223 -0.4623,4.08878 c -1.6357,-0.7111 -3.3187,-1.06666 -5.0491,-1.06668 -1.0432,2e-5 -1.9084,0.2373 -2.5957,0.71184 -0.8767,0.59251 -1.3151,1.5051 -1.3151,2.73779 0,1.11409 0.9361,2.07407 2.8083,2.87995 3.0109,1.25659 4.7652,2.05055 5.2629,2.38186 1.8729,1.30434 2.8094,3.15341 2.8094,5.5472 0,2.56019 -0.9246,4.49209 -2.7736,5.79569 -1.6357,1.13795 -3.8168,1.70692 -6.5434,1.70692 -1.6356,0 -3.7571,-0.32012 -6.3643,-0.96035 l 0.4623,-4.47942 c 1.8729,1.0193 3.7455,1.52895 5.6177,1.52895 1.0909,0 2.0629,-0.24886 2.9158,-0.74657 0.9961,-0.61635 1.4942,-1.43418 1.4942,-2.45349 0,-1.25657 -0.9365,-2.29975 -2.8094,-3.12952 -3.2474,-1.44611 -5.0017,-2.252 -5.2629,-2.41768 -1.8722,-1.28044 -2.8083,-3.09406 -2.8083,-5.44085 0,-2.58332 0.9006,-4.53873 2.702,-5.86623 1.5409,-1.13791 3.5321,-1.70689 5.9736,-1.70691 2.1811,2e-5 4.1604,0.29627 5.9379,0.88872 z"
       id="path5554"
       style="fill:#ffffff" />
    <path
       d="m -1192.1252,-457.34534 0,-20.90834 -7.1119,0 0,-3.91081 19.2014,0 0,3.91081 -7.112,0 0,20.90834 z"
       id="path5556"
       style="fill:#ffffff" />
    <path
       d="m -1176.8487,-457.34534 0,-24.81915 14.6504,0 0,3.91081 -9.6718,0 0,6.1169 8.8536,0 0,3.91081 -8.8536,0 0,6.96981 9.7423,0 0,3.91082 z"
       id="path5558"
       style="fill:#ffffff" />
    <path
       d="m -1157.0558,-457.34534 0,-24.81915 7.9648,0 5.9031,18.80968 0.071,0 5.9031,-18.80968 7.9649,0 0,24.81915 -4.7648,0 0,-20.48079 -0.072,0 -6.6844,20.48079 -4.7648,0 -6.6844,-20.48079 -0.072,0.0705 0,20.41026 z"
       id="path5560"
       style="fill:#ffffff" />
    <path
       d="m -1110.0707,-466.94551 -3.5918,-10.24148 -0.072,0 -3.5907,10.24148 z m -16.0014,9.60017 9.6718,-24.81915 5.6178,0 9.7434,24.81915 -5.5114,0 -2.1345,-5.68935 -10.0624,0 -2.1692,5.68935 z"
       id="path5562"
       style="fill:#ffffff" />
    <path
       d="m -1088.1326,-466.30637 0,-15.85812 4.9786,0 0,14.32917 c 0,4.67042 1.7185,7.00562 5.1555,7.00562 3.4377,0 5.1565,-2.3352 5.1565,-7.00562 l 0,-14.32917 4.9775,0 0,15.85812 c 0,6.25833 -3.378,9.38749 -10.134,9.38749 -6.7561,0 -10.1341,-3.12916 -10.1341,-9.38749 z m 7.2183,-17.45869 2.9516,-5.19128 4.8712,0 -4.8712,5.19128 z"
       id="path5564"
       style="fill:#ffffff" />
    <path
       d="m -1062.5072,-457.34534 0,-24.81915 6.1158,0 9.4581,18.56119 0.072,0 0,-18.56119 4.7648,0 0,24.81915 -6.0811,0 -9.4938,-18.56119 -0.07,0 0,18.56119 z"
       id="path5566"
       style="fill:#ffffff" />
    <path
       d="m -1036.9892,-457.34534 0,-24.81915 4.9786,0 0,24.81915 z"
       id="path5568"
       style="fill:#ffffff" />
    <path
       d="m -1008.8506,-461.86166 0.2127,4.1604 c -2.2043,0.52158 -4.0888,0.78238 -5.6536,0.78238 -4.172,0 -7.4433,-1.0193 -9.8139,-3.05791 -2.5363,-2.15724 -3.8045,-5.27446 -3.8045,-9.35167 0,-4.2197 1.209,-7.48504 3.6271,-9.79603 2.418,-2.31095 5.7484,-3.46644 9.9913,-3.46646 1.9916,2e-5 3.8645,0.34365 5.6188,1.03088 l -0.3559,4.1962 c -1.5409,-0.87749 -3.3306,-1.31624 -5.3692,-1.31626 -2.5125,2e-5 -4.5274,0.84751 -6.0447,2.54246 -1.5174,1.695 -2.2761,3.84645 -2.2761,6.45437 0,2.58335 0.7587,4.70478 2.2761,6.3643 1.5173,1.65954 3.5677,2.4893 6.151,2.4893 2.2998,0 4.1134,-0.34399 5.4409,-1.03196 z"
       id="path5570"
       style="fill:#ffffff" />
    <path
       d="m -1006.1725,-469.82654 c 0,-3.88765 1.0609,-6.98696 3.1827,-9.29795 2.1218,-2.31095 5.11457,-3.46644 8.97837,-3.46646 3.81603,2e-5 6.81461,1.18535 8.99575,3.55598 2.10947,2.29905 3.16422,5.36853 3.16425,9.20843 -3e-5,3.86453 -1.04284,6.95824 -3.12844,9.28114 -2.18114,2.41768 -5.19165,3.62652 -9.03156,3.62652 -3.88768,0 -6.91017,-1.1969 -9.06737,-3.59071 -2.0625,-2.29975 -3.0937,-5.4054 -3.0937,-9.31695 z m 5.1913,0 c 0,2.51318 0.5215,4.57565 1.56473,6.18743 1.2327,1.87294 3.03438,2.80941 5.40504,2.80941 2.37064,0 4.17196,-0.93647 5.40396,-2.80941 1.04316,-1.61178 1.56474,-3.67425 1.56476,-6.18743 -2e-5,-2.44153 -0.54511,-4.46819 -1.63529,-6.07999 -1.2566,-1.84905 -3.03441,-2.77358 -5.33343,-2.7736 -2.29977,2e-5 -4.07757,0.92455 -5.33342,2.7736 -1.09095,1.6118 -1.63635,3.63846 -1.63635,6.07999 z"
       id="path5572"
       style="fill:#ffffff" />
    <path
       d="m -962.4829,-468.43974 0,7.18358 2.34606,0 c 3.41381,0 5.12072,-1.14987 5.12074,-3.44964 -2e-5,-2.48928 -1.70693,-3.73393 -5.12074,-3.73394 z m 0,-9.81394 0,6.1169 2.02703,0 c 3.12878,10e-6 4.69318,-1.00771 4.6932,-3.02318 -2e-5,-1.27972 -0.50967,-2.15686 -1.52896,-2.63145 -0.71113,-0.30816 -1.80169,-0.46224 -3.27167,-0.46227 z m -4.97859,20.90834 0,-24.81915 8.67672,0 c 2.13336,2e-5 3.86378,0.37946 5.19128,1.1383 1.87219,1.06635 2.8083,2.80834 2.80832,5.226 -2e-5,1.44614 -0.45035,2.66709 -1.35099,3.66286 -0.90068,0.99581 -2.09758,1.62392 -3.5907,1.88434 l 0,0.0716 c 1.68266,0.16567 3.05155,0.77009 4.10668,1.81325 1.05509,1.04319 1.58264,2.32328 1.58267,3.84029 -3e-5,2.74973 -1.06707,4.72901 -3.20115,5.93784 -1.46928,0.82977 -3.31798,1.24465 -5.54611,1.24465 z"
       id="path5574"
       style="fill:#ffffff" />
    <path
       d="m -946.93296,-469.82654 c 0,-3.88765 1.06089,-6.98696 3.18269,-9.29795 2.12179,-2.31095 5.11458,-3.46644 8.97839,-3.46646 3.81603,2e-5 6.81461,1.18535 8.99575,3.55598 2.10947,2.29905 3.16422,5.36853 3.16425,9.20843 -3e-5,3.86453 -1.04284,6.95824 -3.12844,9.28114 -2.18114,2.41768 -5.19165,3.62652 -9.03156,3.62652 -3.88768,0 -6.91013,-1.1969 -9.06737,-3.59071 -2.06248,-2.29975 -3.09371,-5.4054 -3.09371,-9.31695 z m 5.19127,0 c 0,2.51318 0.52158,4.57565 1.56476,6.18743 1.23271,1.87294 3.03439,2.80941 5.40505,2.80941 2.37064,0 4.17196,-0.93647 5.40396,-2.80941 1.04315,-1.61178 1.56474,-3.67425 1.56476,-6.18743 -2e-5,-2.44153 -0.54512,-4.46819 -1.63529,-6.07999 -1.2566,-1.84905 -3.03441,-2.77358 -5.33343,-2.7736 -2.29977,2e-5 -4.07758,0.92455 -5.33343,2.7736 -1.09092,1.6118 -1.63638,3.63846 -1.63638,6.07999 z"
       id="path5576"
       style="fill:#ffffff" />
    <path
       d="m -918.08362,-457.34534 0,-24.81915 4.97859,0 0,20.90833 9.63598,0 0,3.91082 z"
       id="path5578"
       style="fill:#ffffff" />
    <path
       d="m -900.30481,-457.34534 0,-24.81915 14.65037,0 0,3.91081 -9.67178,0 0,6.1169 8.85359,0 0,3.91081 -8.85359,0 0,6.96981 9.74232,0 0,3.91082 z"
       id="path5580"
       style="fill:#ffffff" />
    <path
       d="m -875.99567,-457.34534 0,-20.90834 -7.11196,0 0,-3.91081 19.20142,0 0,3.91081 -7.11196,0 0,20.90834 z"
       id="path5582"
       style="fill:#ffffff" />
    <path
       d="m -861.92802,-469.82654 c 0,-3.88765 1.0609,-6.98696 3.1827,-9.29795 2.12179,-2.31095 5.11458,-3.46644 8.97838,-3.46646 3.81604,2e-5 6.81462,1.18535 8.99575,3.55598 2.10948,2.29905 3.16422,5.36853 3.16425,9.20843 -3e-5,3.86453 -1.04284,6.95824 -3.12844,9.28114 -2.18113,2.41768 -5.19165,3.62652 -9.03156,3.62652 -3.88767,0 -6.91013,-1.1969 -9.06736,-3.59071 -2.06248,-2.29975 -3.09372,-5.4054 -3.09372,-9.31695 z m 5.19128,0 c -10e-6,2.51318 0.52158,4.57565 1.56476,6.18743 1.2327,1.87294 3.03438,2.80941 5.40504,2.80941 2.37064,0 4.17196,-0.93647 5.40396,-2.80941 1.04316,-1.61178 1.56474,-3.67425 1.56477,-6.18743 -3e-5,-2.44153 -0.54512,-4.46819 -1.6353,-6.07999 -1.2566,-1.84905 -3.03441,-2.77358 -5.33343,-2.7736 -2.29977,2e-5 -4.07757,0.92455 -5.33342,2.7736 -1.09093,1.6118 -1.63639,3.63846 -1.63638,6.07999 z"
       id="path5584"
       style="fill:#ffffff" />
    <path
       d="m -823.21698,-457.34534 0,-24.81915 14.65037,0 0,3.91081 -9.67178,0 0,6.1169 8.85359,0 0,3.91081 -8.85359,0 0,6.96981 9.74232,0 0,3.91082 z"
       id="path5586"
       style="fill:#ffffff" />
    <path
       d="m -803.42417,-457.34534 0,-24.81915 4.97859,0 0,20.90833 9.63598,0 0,3.91082 z"
       id="path5588"
       style="fill:#ffffff" />
    <path
       d="m -785.64536,-457.34534 0,-24.81915 14.65038,0 0,3.91081 -9.67179,0 0,6.1169 8.8536,0 0,3.91081 -8.8536,0 0,6.96981 9.74232,0 0,3.91082 z"
       id="path5590"
       style="fill:#ffffff" />
    <path
       d="m -748.00211,-461.86166 0.21269,4.1604 c -2.20429,0.52158 -4.0888,0.78238 -5.65354,0.78238 -4.17199,0 -7.4433,-1.0193 -9.81394,-3.05791 -2.53632,-2.15724 -3.80448,-5.27446 -3.80448,-9.35167 0,-4.2197 1.20902,-7.48504 3.62706,-9.79603 2.41803,-2.31095 5.74848,-3.46644 9.99136,-3.46646 1.99156,2e-5 3.8645,0.34365 5.61881,1.03088 l -0.35592,4.1962 c -1.54091,-0.87749 -3.33065,-1.31624 -5.36924,-1.31626 -2.51245,2e-5 -4.52736,0.84751 -6.04473,2.54246 -1.51738,1.695 -2.27607,3.84645 -2.27606,6.45437 -10e-6,2.58335 0.75868,4.70478 2.27606,6.3643 1.51737,1.65954 3.56772,2.4893 6.15108,2.4893 2.29974,0 4.11335,-0.34399 5.44085,-1.03196 z"
       id="path5592"
       style="fill:#ffffff" />
    <path
       d="m -739.59885,-457.34534 0,-20.90834 -7.11196,0 0,-3.91081 19.20142,0 0,3.91081 -7.11196,0 0,20.90834 z"
       id="path5594"
       style="fill:#ffffff" />
    <path
       d="m -719.7702,-478.25368 0,6.68551 1.6353,0 c 3.50858,1e-5 5.26288,-1.14987 5.26289,-3.44964 -10e-6,-1.32746 -0.56898,-2.24006 -1.70691,-2.73779 -0.75888,-0.33203 -1.94421,-0.49805 -3.55598,-0.49808 z m -4.97859,20.90834 0,-24.81915 5.36924,0 c 3.81676,2e-5 6.43627,0.26081 7.85853,0.78238 2.56017,0.92455 3.84027,2.90383 3.84028,5.93784 -10e-6,1.49316 -0.46228,2.77325 -1.38679,3.84029 -0.92455,1.06706 -2.1692,1.70728 -3.73395,1.92068 l 0,0.0705 c 1.09019,0.0948 1.96733,0.94806 2.63145,2.55983 l 3.98244,9.7076 -5.5472,0 -2.98629,-7.7511 c -0.3798,-0.97227 -0.78311,-1.62444 -1.20992,-1.9565 -0.49772,-0.40293 -1.24429,-0.60441 -2.23971,-0.60442 l -1.59949,0 0,10.31202 z"
       id="path5596"
       style="fill:#ffffff" />
    <path
       d="m -703.7938,-469.82654 c 0,-3.88765 1.06089,-6.98696 3.18269,-9.29795 2.12179,-2.31095 5.11458,-3.46644 8.97839,-3.46646 3.81603,2e-5 6.81461,1.18535 8.99575,3.55598 2.10947,2.29905 3.16422,5.36853 3.16425,9.20843 -3e-5,3.86453 -1.04284,6.95824 -3.12844,9.28114 -2.18114,2.41768 -5.19165,3.62652 -9.03156,3.62652 -3.88768,0 -6.91013,-1.1969 -9.06737,-3.59071 -2.06248,-2.29975 -3.09371,-5.4054 -3.09371,-9.31695 z m 5.19127,0 c 0,2.51318 0.52158,4.57565 1.56476,6.18743 1.23271,1.87294 3.03439,2.80941 5.40505,2.80941 2.37064,0 4.17196,-0.93647 5.40396,-2.80941 1.04315,-1.61178 1.56474,-3.67425 1.56476,-6.18743 -2e-5,-2.44153 -0.54512,-4.46819 -1.63529,-6.07999 -1.2566,-1.84905 -3.03441,-2.77358 -5.33343,-2.7736 -2.29977,2e-5 -4.07758,0.92455 -5.33343,2.7736 -1.09092,1.6118 -1.63638,3.63846 -1.63638,6.07999 z m 4.05406,-13.93852 2.95156,-5.19128 4.87116,0 -4.87116,5.19128 z"
       id="path5598"
       style="fill:#ffffff" />
    <path
       d="m -675.19296,-457.34534 0,-24.81915 6.11581,0 9.45802,18.56119 0.0716,0 0,-18.56119 4.76481,0 0,24.81915 -6.08108,0 -9.49382,-18.56119 -0.0705,0 0,18.56119 z"
       id="path5600"
       style="fill:#ffffff" />
    <path
       d="m -649.67499,-457.34534 0,-24.81915 4.97858,0 0,24.81915 z"
       id="path5602"
       style="fill:#ffffff" />
    <path
       d="m -621.53641,-461.86166 0.21268,4.1604 c -2.20428,0.52158 -4.08879,0.78238 -5.65354,0.78238 -4.17198,0 -7.44329,-1.0193 -9.81394,-3.05791 -2.53632,-2.15724 -3.80447,-5.27446 -3.80447,-9.35167 0,-4.2197 1.20902,-7.48504 3.62706,-9.79603 2.41802,-2.31095 5.74847,-3.46644 9.99135,-3.46646 1.99157,2e-5 3.8645,0.34365 5.61882,1.03088 l -0.35592,4.1962 c -1.54091,-0.87749 -3.33065,-1.31624 -5.36924,-1.31626 -2.51246,2e-5 -4.52736,0.84751 -6.04473,2.54246 -1.51739,1.695 -2.27607,3.84645 -2.27607,6.45437 0,2.58335 0.75868,4.70478 2.27607,6.3643 1.51737,1.65954 3.56772,2.4893 6.15107,2.4893 2.29974,0 4.11336,-0.34399 5.44086,-1.03196 z"
       id="path5604"
       style="fill:#ffffff" />
    <path
       d="m -618.85831,-469.82654 c -1e-5,-3.88765 1.06089,-6.98696 3.18269,-9.29795 2.12179,-2.31095 5.11458,-3.46644 8.97839,-3.46646 3.81603,2e-5 6.81461,1.18535 8.99575,3.55598 2.10947,2.29905 3.16422,5.36853 3.16424,9.20843 -2e-5,3.86453 -1.04284,6.95824 -3.12844,9.28114 -2.18113,2.41768 -5.19165,3.62652 -9.03155,3.62652 -3.88768,0 -6.91014,-1.1969 -9.06737,-3.59071 -2.06248,-2.29975 -3.09372,-5.4054 -3.09371,-9.31695 z m 5.19127,0 c -10e-6,2.51318 0.52158,4.57565 1.56476,6.18743 1.2327,1.87294 3.03438,2.80941 5.40505,2.80941 2.37063,0 4.17195,-0.93647 5.40396,-2.80941 1.04315,-1.61178 1.56474,-3.67425 1.56476,-6.18743 -2e-5,-2.44153 -0.54512,-4.46819 -1.6353,-6.07999 -1.2566,-1.84905 -3.03441,-2.77358 -5.33342,-2.7736 -2.29977,2e-5 -4.07758,0.92455 -5.33343,2.7736 -1.09093,1.6118 -1.63639,3.63846 -1.63638,6.07999 z"
       id="path5606"
       style="fill:#ffffff" />
  </g>
  <g
     transform="matrix(0.82941674,0,0,0.85698527,-690.11274,-63.936701)"
     id="flowRoot3116-8"
     style="font-size:288px;font-style:normal;font-variant:normal;font-weight:bold;font-stretch:normal;line-height:125%;letter-spacing:0px;word-spacing:0px;fill:#ff0000;fill-opacity:1;stroke:none;font-family:'Frutiger SAIN Bd v.1';-inkscape-font-specification:'Frutiger SAIN Bd v.1 Bold'" />
  <path
     d="m 1895.5,645.5 c 0,20.98682 -17.4609,38 -39,38 -21.5391,0 -39,-17.01318 -39,-38 0,-20.98682 17.4609,-38 39,-38 21.5391,0 39,17.01318 39,38 z"
     transform="matrix(1.025641,0,0,1.0526316,-52.102488,-34.473671)"
     id="path3229"
     style="fill:#679227;fill-opacity:1;stroke:none" />
  <path
     d="m 1895.5,645.5 c 0,20.98682 -17.4609,38 -39,38 -21.5391,0 -39,-17.01318 -39,-38 0,-20.98682 17.4609,-38 39,-38 21.5391,0 39,17.01318 39,38 z"
     transform="matrix(1.025641,0,0,1.0526316,68.397484,-34.473671)"
     id="path3229-8"
     style="fill:#b7d98f;fill-opacity:1;stroke:none" />
  <path
     d="m 1530.5,645.00003 c 0,22.09139 -17.9086,40 -40,40 -22.0913,0 -40,-17.90861 -40,-40 0,-22.09139 17.9087,-40 40,-40 22.0914,0 40,17.90861 40,40 z"
     id="path3252"
     style="fill:url(#linearGradient3254);fill-opacity:1;stroke:none" />
  <path
     d="m 1650.9999,645.00003 c 0,22.09139 -17.9086,40 -40,40 -22.0914,0 -40,-17.90861 -40,-40 0,-22.09139 17.9086,-40 40,-40 22.0914,0 40,17.90861 40,40 z"
     id="path3250"
     style="fill:url(#linearGradient3256);fill-opacity:1;stroke:none" />
  <path
     d="m 1771.5,645.00003 c 0,22.09139 -17.9086,40 -40,40 -22.0914,0 -40,-17.90861 -40,-40 0,-22.09139 17.9086,-40 40,-40 22.0914,0 40,17.90861 40,40 z"
     id="path3229-5"
     style="fill:url(#linearGradient3258);fill-opacity:1;stroke:none" />
  <path
     d="m 1169,645.00003 c 0,22.09139 -17.9086,40 -40,40 -22.0914,0 -40,-17.90861 -40,-40 0,-22.09139 17.9086,-40 40,-40 22.0914,0 40,17.90861 40,40 z"
     id="path3150"
     style="fill:url(#linearGradient3152);fill-opacity:1;stroke:none" />
  <path
     d="m 1289.5001,645.00003 c 0,22.09139 -17.9086,40 -40,40 -22.0914,0 -40,-17.90861 -40,-40 0,-22.09139 17.9086,-40 40,-40 22.0914,0 40,17.90861 40,40 z"
     id="path3148"
     style="fill:url(#linearGradient3154);fill-opacity:1;stroke:none" />
  <path
     d="m 1410,645.00003 c 0,22.09139 -17.9086,40 -40,40 -22.0914,0 -40,-17.90861 -40,-40 0,-22.09139 17.9086,-40 40,-40 22.0914,0 40,17.90861 40,40 z"
     id="path3229-2-0"
     style="fill:url(#linearGradient3156);fill-opacity:1;stroke:none" />
  <path
     d="m 1895.5,645.5 c 0,20.98682 -17.4609,38 -39,38 -21.5391,0 -39,-17.01318 -39,-38 0,-20.98682 17.4609,-38 39,-38 21.5391,0 39,17.01318 39,38 z"
     transform="matrix(1.025641,0,0,1.0526316,-52.102488,-160.67367)"
     id="path3229-61"
     style="fill:#b7d98f;fill-opacity:1;stroke:none" />
  <path
     d="m 1895.5,645.5 c 0,20.98682 -17.4609,38 -39,38 -21.5391,0 -39,-17.01318 -39,-38 0,-20.98682 17.4609,-38 39,-38 21.5391,0 39,17.01318 39,38 z"
     transform="matrix(1.025641,0,0,1.0526316,68.397484,-160.67367)"
     id="path3229-8-8"
     style="fill:#ffffff;fill-opacity:1;stroke:none" />
  <path
     d="m 1895.5,645.5 c 0,20.98682 -17.4609,38 -39,38 -21.5391,0 -39,-17.01318 -39,-38 0,-20.98682 17.4609,-38 39,-38 21.5391,0 39,17.01318 39,38 z"
     transform="matrix(1.025641,0,0,1.0526316,-52.102488,-286.87367)"
     id="path3229-06"
     style="fill:#b7d98f;fill-opacity:1;stroke:none" />
  <path
     d="m 1895.5,645.5 c 0,20.98682 -17.4609,38 -39,38 -21.5391,0 -39,-17.01318 -39,-38 0,-20.98682 17.4609,-38 39,-38 21.5391,0 39,17.01318 39,38 z"
     transform="matrix(1.025641,0,0,1.0526316,68.397484,-286.87367)"
     id="path3229-8-1"
     style="fill:#ffffff;fill-opacity:1;stroke:none" />
  <path
     d="m 1895.5,645.5 c 0,20.98682 -17.4609,38 -39,38 -21.5391,0 -39,-17.01318 -39,-38 0,-20.98682 17.4609,-38 39,-38 21.5391,0 39,17.01318 39,38 z"
     transform="matrix(1.025641,0,0,1.0526316,-52.102488,-413.07367)"
     id="path3229-7"
     style="fill:#b7d98f;fill-opacity:1;stroke:none" />
  <path
     d="m 1895.5,645.5 c 0,20.98682 -17.4609,38 -39,38 -21.5391,0 -39,-17.01318 -39,-38 0,-20.98682 17.4609,-38 39,-38 21.5391,0 39,17.01318 39,38 z"
     transform="matrix(1.025641,0,0,1.0526316,68.397484,-413.07367)"
     id="path3229-8-82"
     style="fill:#ffffff;fill-opacity:1;stroke:none" />
  <path
     d="m 1895.5,645.5 c 0,20.98682 -17.4609,38 -39,38 -21.5391,0 -39,-17.01318 -39,-38 0,-20.98682 17.4609,-38 39,-38 21.5391,0 39,17.01318 39,38 z"
     transform="matrix(1.025641,0,0,1.0526316,-52.102488,-539.27366)"
     id="path3229-63"
     style="fill:#b7d98f;fill-opacity:1;stroke:none" />
  <path
     d="m 1895.5,645.5 c 0,20.98682 -17.4609,38 -39,38 -21.5391,0 -39,-17.01318 -39,-38 0,-20.98682 17.4609,-38 39,-38 21.5391,0 39,17.01318 39,38 z"
     transform="matrix(1.025641,0,0,1.0526316,68.397484,-539.27366)"
     id="path3229-8-5"
     style="fill:#ffffff;fill-opacity:1;stroke:none" />
  <path
     d="M 1814.5312,0 C 1812.9019,4.3586207 1812,9.0729902 1812,14 c 0,22.09139 17.9086,40 40,40 22.0914,0 40,-17.90861 40,-40 0,-4.9270098 -0.9019,-9.6413793 -2.5312,-14 l -74.9376,0 z"
     id="path3229-72"
     style="fill:#b7d98f;fill-opacity:1;stroke:none" />
  <path
     d="m 1935.0312,0 c -1.6293,4.3586207 -2.5312,9.0729902 -2.5312,14 0,22.09139 17.9086,40 40,40 14.8303,0 27.7798,-8.073557 34.6875,-20.0625 C 1990.6112,13.226318 1965.117,0 1936.4062,0 l -1.375,0 z"
     id="path3229-8-16"
     style="fill:#ffffff;fill-opacity:1;stroke:none" />
  <path
     d="m 1453.0312,0 c -1.6293,4.3586207 -2.5312,9.0729901 -2.5312,14 0,22.09139 17.9087,40 40,40 22.0914,0 40,-17.90861 40,-40 0,-4.9270099 -0.9019,-9.6413793 -2.5312,-14 l -74.9376,0 z"
     id="path3186"
     style="fill:url(#linearGradient3188);fill-opacity:1;stroke:none" />
  <path
     d="M 1573.5312,0 C 1571.9019,4.3586207 1571,9.0729901 1571,14 c 0,22.09139 17.9086,40 40,40 22.0914,0 40,-17.90861 40,-40 0,-4.9270099 -0.9019,-9.6413793 -2.5312,-14 l -74.9376,0 z"
     id="path3184"
     style="fill:url(#linearGradient3190);fill-opacity:1;stroke:none" />
  <path
     d="m 1694.0312,0 c -1.6293,4.3586207 -2.5312,9.0729901 -2.5312,14 0,22.09139 17.9086,40 40,40 22.0914,0 40,-17.90861 40,-40 0,-4.9270099 -0.9019,-9.6413793 -2.5312,-14 l -74.9376,0 z"
     id="path3182"
     style="fill:url(#linearGradient3192);fill-opacity:1;stroke:none" />
  <path
     d="m 1530.5,140.20004 c 0,22.09139 -17.9086,40 -40,40 -22.0913,0 -40,-17.90861 -40,-40 0,-22.09139 17.9087,-40 40,-40 22.0914,0 40,17.90861 40,40 z"
     id="path3180"
     style="fill:url(#linearGradient3194);fill-opacity:1;stroke:none" />
  <path
     d="m 1650.9999,140.20004 c 0,22.09139 -17.9086,40 -40,40 -22.0914,0 -40,-17.90861 -40,-40 0,-22.09139 17.9086,-40 40,-40 22.0914,0 40,17.90861 40,40 z"
     id="path3178"
     style="fill:url(#linearGradient3196);fill-opacity:1;stroke:none" />
  <path
     d="m 1771.5,140.20004 c 0,22.09139 -17.9086,40 -40,40 -22.0914,0 -40,-17.90861 -40,-40 0,-22.09139 17.9086,-40 40,-40 22.0914,0 40,17.90861 40,40 z"
     id="path3176"
     style="fill:url(#linearGradient3198);fill-opacity:1;stroke:none" />
  <path
     d="m 1530.5,266.40003 c 0,22.09139 -17.9086,40 -40,40 -22.0913,0 -40,-17.90861 -40,-40 0,-22.09139 17.9087,-40 40,-40 22.0914,0 40,17.90861 40,40 z"
     id="path3174"
     style="fill:url(#linearGradient3200);fill-opacity:1;stroke:none" />
  <path
     d="m 1650.9999,266.40003 c 0,22.09139 -17.9086,40 -40,40 -22.0914,0 -40,-17.90861 -40,-40 0,-22.09139 17.9086,-40 40,-40 22.0914,0 40,17.90861 40,40 z"
     id="path3172"
     style="fill:url(#linearGradient3202);fill-opacity:1;stroke:none" />
  <path
     d="m 1771.5,266.40003 c 0,22.09139 -17.9086,40 -40,40 -22.0914,0 -40,-17.90861 -40,-40 0,-22.09139 17.9086,-40 40,-40 22.0914,0 40,17.90861 40,40 z"
     id="path3170"
     style="fill:url(#linearGradient3204);fill-opacity:1;stroke:none" />
  <path
     d="m 1530.5,392.60005 c 0,22.09136 -17.9086,40 -40,40 -22.0913,0 -40,-17.90864 -40,-40 0,-22.09142 17.9087,-40.00003 40,-40.00003 22.0914,0 40,17.90861 40,40.00003 z"
     id="path3168"
     style="fill:url(#linearGradient3206);fill-opacity:1;stroke:none" />
  <path
     d="m 1650.9999,392.60005 c 0,22.09136 -17.9086,40 -40,40 -22.0914,0 -40,-17.90864 -40,-40 0,-22.09142 17.9086,-40.00003 40,-40.00003 22.0914,0 40,17.90861 40,40.00003 z"
     id="path3166"
     style="fill:url(#linearGradient3208);fill-opacity:1;stroke:none" />
  <path
     d="m 1771.5,392.60005 c 0,22.09136 -17.9086,40 -40,40 -22.0914,0 -40,-17.90864 -40,-40 0,-22.09142 17.9086,-40.00003 40,-40.00003 22.0914,0 40,17.90861 40,40.00003 z"
     id="path3164"
     style="fill:url(#linearGradient3210);fill-opacity:1;stroke:none" />
  <path
     d="m 1530.5,518.80005 c 0,22.09137 -17.9086,40 -40,40 -22.0913,0 -40,-17.90863 -40,-40 0,-22.09137 17.9087,-40 40,-40 22.0914,0 40,17.90863 40,40 z"
     id="path3162"
     style="fill:url(#linearGradient3212);fill-opacity:1;stroke:none" />
  <path
     d="m 1650.9999,518.80005 c 0,22.09137 -17.9086,40 -40,40 -22.0914,0 -40,-17.90863 -40,-40 0,-22.09137 17.9086,-40 40,-40 22.0914,0 40,17.90863 40,40 z"
     id="path3160"
     style="fill:url(#linearGradient3214);fill-opacity:1;stroke:none" />
  <path
     d="m 1771.5,518.80005 c 0,22.09137 -17.9086,40 -40,40 -22.0914,0 -40,-17.90863 -40,-40 0,-22.09137 17.9086,-40 40,-40 22.0914,0 40,17.90863 40,40 z"
     id="path3229-5-7"
     style="fill:url(#linearGradient3216);fill-opacity:1;stroke:none" />
  <path
     d="M 1091.5312,0 C 1089.9019,4.3586207 1089,9.0729901 1089,14 c 0,22.09139 17.9086,40 40,40 22.0914,0 40,-17.90861 40,-40 0,-4.9270099 -0.9019,-9.6413793 -2.5312,-14 l -74.9376,0 z"
     id="path3126"
     style="fill:url(#linearGradient4111);fill-opacity:1;stroke:none" />
  <path
     d="m 1212.0312,0 c -1.6293,4.3586207 -2.5312,9.0729901 -2.5312,14 0,22.09139 17.9086,40 40,40 22.0914,0 40,-17.90861 40,-40 0,-4.9270099 -0.9019,-9.6413793 -2.5312,-14 l -74.9376,0 z"
     id="path3124"
     style="fill:url(#linearGradient4026);fill-opacity:1;stroke:none" />
  <path
     d="M 1332.5312,0 C 1330.9019,4.3586207 1330,9.0729901 1330,14 c 0,22.09139 17.9086,40 40,40 22.0914,0 40,-17.90861 40,-40 0,-4.9270099 -0.9019,-9.6413793 -2.5312,-14 l -74.9376,0 z"
     id="path3122"
     style="fill:url(#linearGradient4029);fill-opacity:1;stroke:none" />
  <path
     d="m 1169,140.20004 c 0,22.09139 -17.9086,40 -40,40 -22.0914,0 -40,-17.90861 -40,-40 0,-22.09139 17.9086,-40 40,-40 22.0914,0 40,17.90861 40,40 z"
     id="path3120"
     style="fill:url(#linearGradient5715);fill-opacity:1;stroke:none" />
  <path
     d="m 1289.5001,140.20004 c 0,22.09139 -17.9086,40 -40,40 -22.0914,0 -40,-17.90861 -40,-40 0,-22.09139 17.9086,-40 40,-40 22.0914,0 40,17.90861 40,40 z"
     id="path3118"
     style="fill:url(#linearGradient5715);fill-opacity:1;stroke:none" />
  <path
     d="m 1410,140.20004 c 0,22.09139 -17.9086,40 -40,40 -22.0914,0 -40,-17.90861 -40,-40 0,-22.09139 17.9086,-40 40,-40 22.0914,0 40,17.90861 40,40 z"
     id="path3116"
     style="fill:url(#linearGradient5715);fill-opacity:1;stroke:none" />
  <path
     d="m 1169,266.40003 c 0,22.09139 -17.9086,40 -40,40 -22.0914,0 -40,-17.90861 -40,-40 0,-22.09139 17.9086,-40 40,-40 22.0914,0 40,17.90861 40,40 z"
     id="path3114"
     style="fill:url(#linearGradient5715);fill-opacity:1;stroke:none" />
  <path
     d="m 1289.5001,266.40003 c 0,22.09139 -17.9086,40 -40,40 -22.0914,0 -40,-17.90861 -40,-40 0,-22.09139 17.9086,-40 40,-40 22.0914,0 40,17.90861 40,40 z"
     id="path3112"
     style="fill:url(#linearGradient5715);fill-opacity:1;stroke:none" />
  <path
     d="m 1410,266.40003 c 0,22.09139 -17.9086,40 -40,40 -22.0914,0 -40,-17.90861 -40,-40 0,-22.09139 17.9086,-40 40,-40 22.0914,0 40,17.90861 40,40 z"
     id="path3110"
     style="fill:url(#linearGradient5715);fill-opacity:1;stroke:none" />
  <path
     d="m 1169,392.60005 c 0,22.09136 -17.9086,40 -40,40 -22.0914,0 -40,-17.90864 -40,-40 0,-22.09142 17.9086,-40.00003 40,-40.00003 22.0914,0 40,17.90861 40,40.00003 z"
     id="path3108"
     style="fill:url(#linearGradient5715);fill-opacity:1;stroke:none" />
  <path
     d="m 1289.5001,392.60005 c 0,22.09136 -17.9086,40 -40,40 -22.0914,0 -40,-17.90864 -40,-40 0,-22.09142 17.9086,-40.00003 40,-40.00003 22.0914,0 40,17.90861 40,40.00003 z"
     id="path3106"
     style="fill:url(#linearGradient5715);fill-opacity:1;stroke:none" />
  <path
     d="m 1410,392.60005 c 0,22.09136 -17.9086,40 -40,40 -22.0914,0 -40,-17.90864 -40,-40 0,-22.09142 17.9086,-40.00003 40,-40.00003 22.0914,0 40,17.90861 40,40.00003 z"
     id="path3104"
     style="fill:url(#linearGradient5715);fill-opacity:1;stroke:none" />
  <path
     d="m 1169,518.80005 c 0,22.09137 -17.9086,40 -40,40 -22.0914,0 -40,-17.90863 -40,-40 0,-22.09137 17.9086,-40 40,-40 22.0914,0 40,17.90863 40,40 z"
     id="path3102"
     style="fill:url(#linearGradient5715);fill-opacity:1;stroke:none" />
  <path
     d="m 1289.5001,518.80005 c 0,22.09137 -17.9086,40 -40,40 -22.0914,0 -40,-17.90863 -40,-40 0,-22.09137 17.9086,-40 40,-40 22.0914,0 40,17.90863 40,40 z"
     id="path3100"
     style="fill:url(#linearGradient5715);fill-opacity:1;stroke:none" />
  <path
     d="m 1410,518.80005 c 0,22.09137 -17.9086,40 -40,40 -22.0914,0 -40,-17.90863 -40,-40 0,-22.09137 17.9086,-40 40,-40 22.0914,0 40,17.90863 40,40 z"
     id="path3229-2-0-2"
     style="fill:url(#linearGradient5715);fill-opacity:1;stroke:none" />
  <path
     d="m 1895.5,645.5 c 0,20.98682 -17.4609,38 -39,38 -21.5391,0 -39,-17.01318 -39,-38 0,-20.98682 17.4609,-38 39,-38 21.5391,0 39,17.01318 39,38 z"
     transform="matrix(1.025641,0,0,1.0526316,-52.102488,91.726315)"
     id="path3229-00"
     style="fill:#b7d98f;fill-opacity:1;stroke:none" />
  <path
     d="m 1895.5,645.5 c 0,20.98682 -17.4609,38 -39,38 -21.5391,0 -39,-17.01318 -39,-38 0,-20.98682 17.4609,-38 39,-38 21.5391,0 39,17.01318 39,38 z"
     transform="matrix(1.025641,0,0,1.0526316,68.397484,91.726315)"
     id="path3229-8-4"
     style="fill:#ffffff;fill-opacity:1;stroke:none" />
  <path
     d="m 1895.5,645.5 c 0,20.98682 -17.4609,38 -39,38 -21.5391,0 -39,-17.01318 -39,-38 0,-20.98682 17.4609,-38 39,-38 21.5391,0 39,17.01318 39,38 z"
     transform="matrix(1.025641,0,0,1.0526316,-52.102488,217.92631)"
     id="path3229-77"
     style="fill:#b7d98f;fill-opacity:1;stroke:none" />
  <path
     d="m 1895.5,645.5 c 0,20.98682 -17.4609,38 -39,38 -21.5391,0 -39,-17.01318 -39,-38 0,-20.98682 17.4609,-38 39,-38 21.5391,0 39,17.01318 39,38 z"
     transform="matrix(1.025641,0,0,1.0526316,68.397484,217.92631)"
     id="path3229-8-59"
     style="fill:#ffffff;fill-opacity:1;stroke:none" />
  <path
     d="m 1895.5,645.5 c 0,20.98682 -17.4609,38 -39,38 -21.5391,0 -39,-17.01318 -39,-38 0,-20.98682 17.4609,-38 39,-38 21.5391,0 39,17.01318 39,38 z"
     transform="matrix(1.025641,0,0,1.0526316,-52.102488,344.1263)"
     id="path3229-03"
     style="fill:#b7d98f;fill-opacity:1;stroke:none" />
  <path
     d="m 1895.5,645.5 c 0,20.98682 -17.4609,38 -39,38 -21.5391,0 -39,-17.01318 -39,-38 0,-20.98682 17.4609,-38 39,-38 21.5391,0 39,17.01318 39,38 z"
     transform="matrix(1.025641,0,0,1.0526316,68.397484,344.1263)"
     id="path3229-8-12"
     style="fill:#ffffff;fill-opacity:1;stroke:none" />
  <path
     d="m 1895.5,645.5 c 0,20.98682 -17.4609,38 -39,38 -21.5391,0 -39,-17.01318 -39,-38 0,-20.98682 17.4609,-38 39,-38 21.5391,0 39,17.01318 39,38 z"
     transform="matrix(1.025641,0,0,1.0526316,-52.102488,470.3263)"
     id="path3229-1"
     style="fill:#b7d98f;fill-opacity:1;stroke:none" />
  <path
     d="m 1895.5,645.5 c 0,20.98682 -17.4609,38 -39,38 -21.5391,0 -39,-17.01318 -39,-38 0,-20.98682 17.4609,-38 39,-38 21.5391,0 39,17.01318 39,38 z"
     transform="matrix(1.025641,0,0,1.0526316,68.397484,470.3263)"
     id="path3229-8-0"
     style="fill:#ffffff;fill-opacity:1;stroke:none" />
  <path
     d="m 1852,1236 c -22.0914,0 -40,17.9086 -40,40 l 80,0 c 0,-22.0914 -17.9086,-40 -40,-40 z"
     id="path3229-98"
     style="fill:#b7d98f;fill-opacity:1;stroke:none" />
  <path
     d="m 1972.5,1236 c -22.0914,0 -40,17.9086 -40,40 l 3.9062,0 c 25.6166,0 48.6767,-10.5207 65.125,-27.5 -7.2904,-7.6977 -17.5922,-12.5 -29.0312,-12.5 z"
     id="path3229-8-14"
     style="fill:#ffffff;fill-opacity:1;stroke:none" />
  <path
     d="m 1852,590.00003 c -30.3757,0 -55,24.6244 -55,55 0,30.3757 24.6243,55 55,55 30.3757,0 55,-24.6243 55,-55 0,-30.3756 -24.6243,-55 -55,-55 z m 0,5 c 27.6142,0 50,22.3858 50,50 0,27.6143 -22.3858,50 -50,50 -27.6142,0 -50,-22.3857 -50,-50 0,-27.6142 22.3858,-50 50,-50 z"
     id="path4348"
     style="fill:#b7d98f;fill-opacity:1;stroke:none" />
  <path
     d="m 1852,575.00003 c -38.66,0 -70,31.3401 -70,70 0,38.66 31.34,70 70,70 38.6599,0 70,-31.34 70,-70 0,-38.6599 -31.3401,-70 -70,-70 z m 0,3.5 c 36.7269,0 66.5,29.7731 66.5,66.5 0,36.727 -29.7731,66.5 -66.5,66.5 -36.727,0 -66.5,-29.773 -66.5,-66.5 0,-36.7269 29.773,-66.5 66.5,-66.5 z"
     id="path4369"
     style="fill:#b7d98f;fill-opacity:1;stroke:none" />
  <path
     d="m 1530.5,771.19997 c 0,22.09139 -17.9086,40 -40,40 -22.0914,0 -40,-17.90861 -40,-40 0,-22.09139 17.9086,-40 40,-40 22.0914,0 40,17.90861 40,40 z"
     id="path3246"
     style="fill:url(#linearGradient5409);fill-opacity:1;stroke:none" />
  <path
     d="m 1650.9999,771.19997 c 0,22.09139 -17.9086,40 -40,40 -22.0914,0 -40,-17.90861 -40,-40 0,-22.09139 17.9086,-40 40,-40 22.0914,0 40,17.90861 40,40 z"
     id="path3244"
     style="fill:url(#linearGradient5409);fill-opacity:1;stroke:none" />
  <path
     d="m 1771.5,771.19997 c 0,22.09139 -17.9086,40 -40,40 -22.0914,0 -40,-17.90861 -40,-40 0,-22.09139 17.9086,-40 40,-40 22.0914,0 40,17.90861 40,40 z"
     id="path3242"
     style="fill:url(#linearGradient5409);fill-opacity:1;stroke:none" />
  <path
     d="m 1530.5,897.39997 c 0,22.09139 -17.9086,40 -40,40 -22.0914,0 -40,-17.90861 -40,-40 0,-22.09139 17.9086,-40 40,-40 22.0914,0 40,17.90861 40,40 z"
     id="path3240"
     style="fill:url(#linearGradient5409);fill-opacity:1;stroke:none" />
  <path
     d="m 1650.9999,897.39997 c 0,22.09139 -17.9086,40 -40,40 -22.0914,0 -40,-17.90861 -40,-40 0,-22.09139 17.9086,-40 40,-40 22.0914,0 40,17.90861 40,40 z"
     id="path3238"
     style="fill:url(#linearGradient5409);fill-opacity:1;stroke:none" />
  <path
     d="m 1771.5,897.39997 c 0,22.09139 -17.9086,40 -40,40 -22.0914,0 -40,-17.90861 -40,-40 0,-22.09139 17.9086,-40 40,-40 22.0914,0 40,17.90861 40,40 z"
     id="path3236"
     style="fill:url(#linearGradient5409);fill-opacity:1;stroke:none" />
  <path
     d="m 1530.5,1023.6 c 0,22.0914 -17.9086,40 -40,40 -22.0914,0 -40,-17.9086 -40,-40 0,-22.0914 17.9086,-40.00004 40,-40.00004 22.0914,0 40,17.90864 40,40.00004 z"
     id="path3234"
     style="fill:url(#linearGradient5409);fill-opacity:1;stroke:none" />
  <path
     d="m 1650.9999,1023.6 c 0,22.0914 -17.9086,40 -40,40 -22.0914,0 -40,-17.9086 -40,-40 0,-22.0914 17.9086,-40.00004 40,-40.00004 22.0914,0 40,17.90864 40,40.00004 z"
     id="path3232"
     style="fill:url(#linearGradient5409);fill-opacity:1;stroke:none" />
  <path
     d="m 1771.5,1023.6 c 0,22.0914 -17.9086,40 -40,40 -22.0914,0 -40,-17.9086 -40,-40 0,-22.0914 17.9086,-40.00004 40,-40.00004 22.0914,0 40,17.90864 40,40.00004 z"
     id="path3230"
     style="fill:url(#linearGradient5409);fill-opacity:1;stroke:none" />
  <path
     d="m 1530.5,1149.8 c 0,22.0913 -17.9086,40 -40,40 -22.0914,0 -40,-17.9087 -40,-40 0,-22.0914 17.9086,-40 40,-40 22.0914,0 40,17.9086 40,40 z"
     id="path3228"
     style="fill:url(#linearGradient5409);fill-opacity:1;stroke:none" />
  <path
     d="m 1650.9999,1149.8 c 0,22.0913 -17.9086,40 -40,40 -22.0914,0 -40,-17.9087 -40,-40 0,-22.0914 17.9086,-40 40,-40 22.0914,0 40,17.9086 40,40 z"
     id="path3226"
     style="fill:url(#linearGradient5409);fill-opacity:1;stroke:none" />
  <path
     d="m 1771.5,1149.8 c 0,22.0913 -17.9086,40 -40,40 -22.0914,0 -40,-17.9087 -40,-40 0,-22.0914 17.9086,-40 40,-40 22.0914,0 40,17.9086 40,40 z"
     id="path3224"
     style="fill:url(#linearGradient5409);fill-opacity:1;stroke:none" />
  <path
     d="m 1490.5,1236 c -22.0914,0 -40,17.9086 -40,40 l 80,0 c 0,-22.0914 -17.9086,-40 -40,-40 z"
     id="path3222"
     style="fill:url(#linearGradient4072);fill-opacity:1;stroke:none" />
  <path
     d="m 1611,1236 c -22.0914,0 -40,17.9086 -40,40 l 80,0 c 0,-22.0914 -17.9086,-40 -40,-40 z"
     id="path3220"
     style="fill:url(#linearGradient4075);fill-opacity:1;stroke:none" />
  <path
     d="m 1731.5,1236 c -22.0914,0 -40,17.9086 -40,40 l 80,0 c 0,-22.0914 -17.9086,-40 -40,-40 z"
     id="path3229-5-7-2"
     style="fill:url(#linearGradient4092);fill-opacity:1;stroke:none" />
  <path
     d="m 1169,771.19995 c 0,22.09139 -17.9086,40 -40,40 -22.0914,0 -40,-17.90861 -40,-40 0,-22.09139 17.9086,-40.00001 40,-40.00001 22.0914,0 40,17.90862 40,40.00001 z"
     id="path3126-1"
     style="fill:url(#linearGradient3733);fill-opacity:1;stroke:none" />
  <path
     d="m 1289.5001,771.19995 c 0,22.09139 -17.9086,40 -40,40 -22.0914,0 -40,-17.90861 -40,-40 0,-22.09139 17.9086,-40.00001 40,-40.00001 22.0914,0 40,17.90862 40,40.00001 z"
     id="path3124-1"
     style="fill:url(#linearGradient3735);fill-opacity:1;stroke:none" />
  <path
     d="m 1410,771.19995 c 0,22.09139 -17.9086,40 -40,40 -22.0914,0 -40,-17.90861 -40,-40 0,-22.09139 17.9086,-40.00001 40,-40.00001 22.0914,0 40,17.90862 40,40.00001 z"
     id="path3122-5"
     style="fill:url(#linearGradient3737);fill-opacity:1;stroke:none" />
  <path
     d="m 1169,897.39994 c 0,22.09139 -17.9086,40 -40,40 -22.0914,0 -40,-17.90861 -40,-40 0,-22.09139 17.9086,-40 40,-40 22.0914,0 40,17.90861 40,40 z"
     id="path3120-2"
     style="fill:url(#linearGradient3739);fill-opacity:1;stroke:none" />
  <path
     d="m 1289.5001,897.39994 c 0,22.09139 -17.9086,40 -40,40 -22.0914,0 -40,-17.90861 -40,-40 0,-22.09139 17.9086,-40 40,-40 22.0914,0 40,17.90861 40,40 z"
     id="path3118-7"
     style="fill:url(#linearGradient3741);fill-opacity:1;stroke:none" />
  <path
     d="m 1410,897.39994 c 0,22.09139 -17.9086,40 -40,40 -22.0914,0 -40,-17.90861 -40,-40 0,-22.09139 17.9086,-40 40,-40 22.0914,0 40,17.90861 40,40 z"
     id="path3116-6"
     style="fill:url(#linearGradient3743);fill-opacity:1;stroke:none" />
  <path
     d="m 1169,1023.5999 c 0,22.0914 -17.9086,40 -40,40 -22.0914,0 -40,-17.9086 -40,-40 0,-22.0914 17.9086,-39.99997 40,-39.99997 22.0914,0 40,17.90857 40,39.99997 z"
     id="path3114-1"
     style="fill:url(#linearGradient3745);fill-opacity:1;stroke:none" />
  <path
     d="m 1289.5001,1023.5999 c 0,22.0914 -17.9086,40 -40,40 -22.0914,0 -40,-17.9086 -40,-40 0,-22.0914 17.9086,-39.99997 40,-39.99997 22.0914,0 40,17.90857 40,39.99997 z"
     id="path3112-4"
     style="fill:url(#linearGradient3747);fill-opacity:1;stroke:none" />
  <path
     d="m 1410,1023.5999 c 0,22.0914 -17.9086,40 -40,40 -22.0914,0 -40,-17.9086 -40,-40 0,-22.0914 17.9086,-39.99997 40,-39.99997 22.0914,0 40,17.90857 40,39.99997 z"
     id="path3110-2"
     style="fill:url(#linearGradient3749);fill-opacity:1;stroke:none" />
  <path
     d="m 1169,1149.8 c 0,22.0913 -17.9086,40 -40,40 -22.0914,0 -40,-17.9087 -40,-40 0,-22.0915 17.9086,-40.0001 40,-40.0001 22.0914,0 40,17.9086 40,40.0001 z"
     id="path3108-3"
     style="fill:url(#linearGradient3751);fill-opacity:1;stroke:none" />
  <path
     d="m 1289.5001,1149.8 c 0,22.0913 -17.9086,40 -40,40 -22.0914,0 -40,-17.9087 -40,-40 0,-22.0915 17.9086,-40.0001 40,-40.0001 22.0914,0 40,17.9086 40,40.0001 z"
     id="path3106-2"
     style="fill:url(#linearGradient3753);fill-opacity:1;stroke:none" />
  <path
     d="m 1410,1149.8 c 0,22.0913 -17.9086,40 -40,40 -22.0914,0 -40,-17.9087 -40,-40 0,-22.0915 17.9086,-40.0001 40,-40.0001 22.0914,0 40,17.9086 40,40.0001 z"
     id="path3104-2"
     style="fill:url(#linearGradient3755);fill-opacity:1;stroke:none" />
  <path
     d="m 1129,1236 c -22.0914,0 -40,17.9086 -40,40 l 80,0 c 0,-22.0914 -17.9086,-40 -40,-40 z"
     id="path3102-1"
     style="fill:url(#linearGradient3757);fill-opacity:1;stroke:none" />
  <path
     d="m 1249.5,1236 c -22.0914,0 -40,17.9086 -40,40 l 80,0 c 0,-22.0914 -17.9086,-40 -40,-40 z"
     id="path3100-6"
     style="fill:url(#linearGradient3759);fill-opacity:1;stroke:none" />
  <path
     d="m 1370,1236 c -22.0914,0 -40,17.9086 -40,40 l 80,0 c 0,-22.0914 -17.9086,-40 -40,-40 z"
     id="path3229-2-0-2-8"
     style="fill:url(#linearGradient3761);fill-opacity:1;stroke:none" />
</svg>
